# Made in Blockbench 4.10.4
mtllib sprinkler_normal_inv.mtl

o cube
v 0.6875 1.3125 0.6875
v 0.6875 1.3125 0.3125
v 0.6875 0.9375 0.6875
v 0.6875 0.9375 0.3125
v 0.3125 1.3125 0.6875
v 0.3125 1.3125 0.3125
v 0.3125 0.9375 0.6875
v 0.3125 0.9375 0.3125
v 0.875 1.0625 0.875
v 0.875 1.0625 0.125
v 0.9375 1 0.9375
v 0.9375 1 0.0625
v 0.125 1.0625 0.875
v 0.125 1.0625 0.125
v 0.0625 1 0.9375
v 0.0625 1 0.0625
v 1 1 1
v 1 1 0
v 1 0 1
v 1 0 0
v 0 1 1
v 0 1 0
v 0 0 1
v 0 0 0
v -0.1193908773652741 1.3646835306586815 0.625
v -0.1193908773652741 1.3646835306586815 0.375
v 0.0971154735808355 1.2396835306586815 0.625
v 0.0971154735808355 1.2396835306586815 0.375
v 0.005609122634725905 1.5811898816047911 0.625
v 0.005609122634725905 1.5811898816047911 0.375
v 0.2221154735808355 1.4561898816047911 0.625
v 0.2221154735808355 1.4561898816047911 0.375
v -0.18914246510180155 1.3688702367904177 0.65625
v -0.18914246510180155 1.3688702367904177 0.34375
v 0.13561706131736295 1.1813702367904177 0.65625
v 0.13561706131736295 1.1813702367904177 0.34375
v -0.03289246510180155 1.639503175473055 0.65625
v -0.03289246510180155 1.639503175473055 0.34375
v 0.29186706131736295 1.452003175473055 0.65625
v 0.29186706131736295 1.452003175473055 0.34375
v 0.1283654735808355 1.2938101183952089 0.5625
v 0.1283654735808355 1.2938101183952089 0.4375
v 0.39899841226347255 1.1375601183952089 0.5625
v 0.39899841226347255 1.1375601183952089 0.4375
v 0.1908654735808355 1.4020632938682638 0.5625
v 0.1908654735808355 1.4020632938682638 0.4375
v 0.4614984122634726 1.2458132938682638 0.5625
v 0.4614984122634726 1.2458132938682638 0.4375
v 0.3749999976716935 1.3646835322717772 -0.11939087643395219
v 0.6249999976716935 1.3646835290455812 -0.11939087829659734
v 0.37499999767169356 1.239683532271778 0.09711547451215796
v 0.6249999976716935 1.2396835290455819 0.0971154726495127
v 0.37500000139698386 1.5811898832178872 0.005609123566046925
v 0.6250000013969839 1.5811898799916912 0.005609121703401776
v 0.37500000139698386 1.4561898832178881 0.22211547451215707
v 0.6250000013969839 1.456189879991692 0.22211547264951192
v 0.34374999720603217 1.3688702388067877 -0.189142463937649
v 0.6562499972060322 1.3688702347740427 -0.18914246626595543
v 0.3437499972060322 1.181370238806789 0.13561706248151623
v 0.6562499972060322 1.1813702347740438 0.13561706015320968
v 0.34375000186264515 1.6395031774894253 -0.03289246393765011
v 0.6562500018626451 1.6395031734566803 -0.032892466265956544
v 0.34375000186264515 1.4520031774894266 0.29186706248151517
v 0.6562500018626451 1.4520031734566814 0.2918670601532087
v 0.43749999860301614 1.2938101192017566 0.12836547404649645
v 0.5624999986030161 1.2938101175886585 0.12836547311517388
v 0.43749999860301614 1.1375601192017575 0.39899841272913406
v 0.5624999986030161 1.1375601175886594 0.3989984117978115
v 0.4375000004656613 1.4020632946748115 0.190865474046496
v 0.5625000004656613 1.4020632930617136 0.19086547311517343
v 0.4375000004656613 1.2458132946748126 0.46149841272913367
v 0.5625000004656613 1.2458132930617145 0.46149841179781104
v 1.119390877365274 1.3646835306586815 0.625
v 1.119390877365274 1.3646835306586815 0.375
v 0.9028845264191645 1.2396835306586815 0.625
v 0.9028845264191645 1.2396835306586815 0.375
v 0.9943908773652741 1.5811898816047911 0.625
v 0.9943908773652741 1.5811898816047911 0.375
v 0.7778845264191645 1.4561898816047911 0.625
v 0.7778845264191645 1.4561898816047911 0.375
v 1.1891424651018014 1.3688702367904177 0.65625
v 1.1891424651018014 1.3688702367904177 0.34375
v 0.864382938682637 1.1813702367904177 0.65625
v 0.864382938682637 1.1813702367904177 0.34375
v 1.0328924651018014 1.639503175473055 0.65625
v 1.0328924651018014 1.639503175473055 0.34375
v 0.708132938682637 1.452003175473055 0.65625
v 0.708132938682637 1.452003175473055 0.34375
v 0.8716345264191645 1.2938101183952089 0.5625
v 0.8716345264191645 1.2938101183952089 0.4375
v 0.6010015877365275 1.1375601183952089 0.5625
v 0.6010015877365275 1.1375601183952089 0.4375
v 0.8091345264191645 1.4020632938682638 0.5625
v 0.8091345264191645 1.4020632938682638 0.4375
v 0.5385015877365275 1.2458132938682638 0.5625
v 0.5385015877365275 1.2458132938682638 0.4375
v 0.3749999976716935 1.3646835322717772 1.1193908764339522
v 0.6249999976716935 1.3646835290455812 1.1193908782965973
v 0.37499999767169356 1.239683532271778 0.902884525487842
v 0.6249999976716935 1.2396835290455819 0.9028845273504873
v 0.37500000139698386 1.5811898832178872 0.9943908764339531
v 0.6250000013969839 1.5811898799916912 0.9943908782965982
v 0.37500000139698386 1.4561898832178881 0.7778845254878429
v 0.6250000013969839 1.456189879991692 0.7778845273504881
v 0.34374999720603217 1.3688702388067877 1.189142463937649
v 0.6562499972060322 1.3688702347740427 1.1891424662659555
v 0.3437499972060322 1.181370238806789 0.8643829375184837
v 0.6562499972060322 1.1813702347740438 0.8643829398467904
v 0.34375000186264515 1.6395031774894253 1.03289246393765
v 0.6562500018626451 1.6395031734566803 1.0328924662659564
v 0.34375000186264515 1.4520031774894266 0.7081329375184848
v 0.6562500018626451 1.4520031734566814 0.7081329398467913
v 0.43749999860301614 1.2938101192017566 0.8716345259535035
v 0.5624999986030161 1.2938101175886585 0.8716345268848261
v 0.43749999860301614 1.1375601192017575 0.601001587270866
v 0.5624999986030161 1.1375601175886594 0.6010015882021885
v 0.4375000004656613 1.4020632946748115 0.809134525953504
v 0.5625000004656613 1.4020632930617136 0.8091345268848266
v 0.4375000004656613 1.2458132946748126 0.5385015872708663
v 0.5625000004656613 1.2458132930617145 0.538501588202189
vt 0.6875 0.65625
vt 0.6875 0.84375
vt 0.5 0.84375
vt 0.5 0.65625
vt 0.6875 0.65625
vt 0.6875 0.84375
vt 0.5 0.84375
vt 0.5 0.65625
vt 0.875 0.5
vt 0.875 0.6875
vt 0.6875 0.6875
vt 0.6875 0.5
vt 0.6875 0.65625
vt 0.6875 0.84375
vt 0.5 0.84375
vt 0.5 0.65625
vt 0.6875 0.65625
vt 0.6875 0.84375
vt 0.5 0.84375
vt 0.5 0.65625
vt 0.6875 0.65625
vt 0.6875 0.84375
vt 0.5 0.84375
vt 0.5 0.65625
vt 0.53125 0.46875
vt 0.57544375 0.4375
vt 0.57544375 0.0625
vt 0.53125 0.03125
vt 0.96875 0.03393125000000008
vt 0.9375 0.07812500000000011
vt 0.5625 0.07812500000000011
vt 0.53125 0.03393125000000008
vt 0.9375 0.0625
vt 0.9375 0.4375
vt 0.5625 0.4375
vt 0.5625 0.0625
vt 0.375 0.625
vt 0.375 1
vt 0 1
vt 0 0.625
vt 0.96875 0.46875
vt 0.9375 0.42455624999999997
vt 0.5625 0.42455624999999997
vt 0.53125 0.46875
vt 0.9691937499999999 0.46875
vt 0.9249999999999998 0.4375
vt 0.9249999999999998 0.0625
vt 0.9691937499999999 0.03125
vt 0.5 0.5
vt 0.5 1
vt 0 1
vt 0 0.5
vt 0.5 0.5
vt 0.5 1
vt 0 1
vt 0 0.5
vt 1 0
vt 1 0.5
vt 0.5 0.5
vt 0.5 0
vt 0.5 0
vt 0.5 0.5
vt 0 0.5
vt 0 0
vt 0.5 0.5
vt 0.5 1
vt 0 1
vt 0 0.5
vt 0.5 0.5
vt 0.5 1
vt 0 1
vt 0 0.5
vt 0.84375 0.84375
vt 0.71875 0.84375
vt 0.71875 0.71875
vt 0.84375 0.71875
vt 0.84375 0.84375
vt 0.71875 0.84375
vt 0.71875 0.71875
vt 0.84375 0.71875
vt 0.6875 0.3125
vt 0.8125 0.3125
vt 0.8125 0.1875
vt 0.6875 0.1875
vt 0.6875 0.3125
vt 0.8125 0.3125
vt 0.8125 0.1875
vt 0.6875 0.1875
vt 0.84375 0.84375
vt 0.71875 0.84375
vt 0.71875 0.71875
vt 0.84375 0.71875
vt 0.84375 0.84375
vt 0.71875 0.84375
vt 0.71875 0.71875
vt 0.84375 0.71875
vt 0.84375 1
vt 1 1
vt 1 0.8125
vt 0.84375 0.8125
vt 0.84375 1
vt 1 1
vt 1 0.8125
vt 0.84375 0.8125
vt 0.53125 1
vt 0.6875 1
vt 0.6875 0.84375
vt 0.53125 0.84375
vt 0.6875 1
vt 0.84375 1
vt 0.84375 0.84375
vt 0.6875 0.84375
vt 0.84375 1
vt 1 1
vt 1 0.8125
vt 0.84375 0.8125
vt 0.84375 1
vt 1 1
vt 1 0.8125
vt 0.84375 0.8125
vt 0.84375 0.84375
vt 0.78125 0.84375
vt 0.78125 0.6875
vt 0.84375 0.6875
vt 0.84375 0.84375
vt 0.78125 0.84375
vt 0.78125 0.6875
vt 0.84375 0.6875
vt 0.90625 0.75
vt 0.96875 0.75
vt 0.96875 0.6875
vt 0.90625 0.6875
vt 0.90625 0.75
vt 0.96875 0.75
vt 0.96875 0.6875
vt 0.90625 0.6875
vt 0.84375 0.84375
vt 0.78125 0.84375
vt 0.78125 0.6875
vt 0.84375 0.6875
vt 0.84375 0.84375
vt 0.78125 0.84375
vt 0.78125 0.6875
vt 0.84375 0.6875
vt 0.84375 0.84375
vt 0.71875 0.84375
vt 0.71875 0.71875
vt 0.84375 0.71875
vt 0.84375 0.84375
vt 0.71875 0.84375
vt 0.71875 0.71875
vt 0.84375 0.71875
vt 0.6875 0.3125
vt 0.8125 0.3125
vt 0.8125 0.1875
vt 0.6875 0.1875
vt 0.6875 0.3125
vt 0.8125 0.3125
vt 0.8125 0.1875
vt 0.6875 0.1875
vt 0.84375 0.84375
vt 0.71875 0.84375
vt 0.71875 0.71875
vt 0.84375 0.71875
vt 0.84375 0.84375
vt 0.71875 0.84375
vt 0.71875 0.71875
vt 0.84375 0.71875
vt 0.84375 1
vt 1 1
vt 1 0.8125
vt 0.84375 0.8125
vt 0.84375 1
vt 1 1
vt 1 0.8125
vt 0.84375 0.8125
vt 0.53125 1
vt 0.6875 1
vt 0.6875 0.84375
vt 0.53125 0.84375
vt 0.6875 1
vt 0.84375 1
vt 0.84375 0.84375
vt 0.6875 0.84375
vt 0.84375 1
vt 1 1
vt 1 0.8125
vt 0.84375 0.8125
vt 0.84375 1
vt 1 1
vt 1 0.8125
vt 0.84375 0.8125
vt 0.84375 0.84375
vt 0.78125 0.84375
vt 0.78125 0.6875
vt 0.84375 0.6875
vt 0.84375 0.84375
vt 0.78125 0.84375
vt 0.78125 0.6875
vt 0.84375 0.6875
vt 0.90625 0.75
vt 0.96875 0.75
vt 0.96875 0.6875
vt 0.90625 0.6875
vt 0.90625 0.75
vt 0.96875 0.75
vt 0.96875 0.6875
vt 0.90625 0.6875
vt 0.84375 0.84375
vt 0.78125 0.84375
vt 0.78125 0.6875
vt 0.84375 0.6875
vt 0.84375 0.84375
vt 0.78125 0.84375
vt 0.78125 0.6875
vt 0.84375 0.6875
vt 0.71875 0.71875
vt 0.71875 0.84375
vt 0.84375 0.84375
vt 0.84375 0.71875
vt 0.71875 0.71875
vt 0.71875 0.84375
vt 0.84375 0.84375
vt 0.84375 0.71875
vt 0.8125 0.1875
vt 0.8125 0.3125
vt 0.6875 0.3125
vt 0.6875 0.1875
vt 0.8125 0.1875
vt 0.8125 0.3125
vt 0.6875 0.3125
vt 0.6875 0.1875
vt 0.71875 0.71875
vt 0.71875 0.84375
vt 0.84375 0.84375
vt 0.84375 0.71875
vt 0.71875 0.71875
vt 0.71875 0.84375
vt 0.84375 0.84375
vt 0.84375 0.71875
vt 1 0.8125
vt 1 1
vt 0.84375 1
vt 0.84375 0.8125
vt 1 0.8125
vt 1 1
vt 0.84375 1
vt 0.84375 0.8125
vt 0.6875 0.84375
vt 0.6875 1
vt 0.53125 1
vt 0.53125 0.84375
vt 0.84375 0.84375
vt 0.84375 1
vt 0.6875 1
vt 0.6875 0.84375
vt 1 0.8125
vt 1 1
vt 0.84375 1
vt 0.84375 0.8125
vt 1 0.8125
vt 1 1
vt 0.84375 1
vt 0.84375 0.8125
vt 0.78125 0.6875
vt 0.78125 0.84375
vt 0.84375 0.84375
vt 0.84375 0.6875
vt 0.78125 0.6875
vt 0.78125 0.84375
vt 0.84375 0.84375
vt 0.84375 0.6875
vt 0.96875 0.6875
vt 0.96875 0.75
vt 0.90625 0.75
vt 0.90625 0.6875
vt 0.96875 0.6875
vt 0.96875 0.75
vt 0.90625 0.75
vt 0.90625 0.6875
vt 0.78125 0.6875
vt 0.78125 0.84375
vt 0.84375 0.84375
vt 0.84375 0.6875
vt 0.78125 0.6875
vt 0.78125 0.84375
vt 0.84375 0.84375
vt 0.84375 0.6875
vt 0.71875 0.71875
vt 0.71875 0.84375
vt 0.84375 0.84375
vt 0.84375 0.71875
vt 0.71875 0.71875
vt 0.71875 0.84375
vt 0.84375 0.84375
vt 0.84375 0.71875
vt 0.8125 0.1875
vt 0.8125 0.3125
vt 0.6875 0.3125
vt 0.6875 0.1875
vt 0.8125 0.1875
vt 0.8125 0.3125
vt 0.6875 0.3125
vt 0.6875 0.1875
vt 0.71875 0.71875
vt 0.71875 0.84375
vt 0.84375 0.84375
vt 0.84375 0.71875
vt 0.71875 0.71875
vt 0.71875 0.84375
vt 0.84375 0.84375
vt 0.84375 0.71875
vt 1 0.8125
vt 1 1
vt 0.84375 1
vt 0.84375 0.8125
vt 1 0.8125
vt 1 1
vt 0.84375 1
vt 0.84375 0.8125
vt 0.6875 0.84375
vt 0.6875 1
vt 0.53125 1
vt 0.53125 0.84375
vt 0.84375 0.84375
vt 0.84375 1
vt 0.6875 1
vt 0.6875 0.84375
vt 1 0.8125
vt 1 1
vt 0.84375 1
vt 0.84375 0.8125
vt 1 0.8125
vt 1 1
vt 0.84375 1
vt 0.84375 0.8125
vt 0.78125 0.6875
vt 0.78125 0.84375
vt 0.84375 0.84375
vt 0.84375 0.6875
vt 0.78125 0.6875
vt 0.78125 0.84375
vt 0.84375 0.84375
vt 0.84375 0.6875
vt 0.96875 0.6875
vt 0.96875 0.75
vt 0.90625 0.75
vt 0.90625 0.6875
vt 0.96875 0.6875
vt 0.96875 0.75
vt 0.90625 0.75
vt 0.90625 0.6875
vt 0.78125 0.6875
vt 0.78125 0.84375
vt 0.84375 0.84375
vt 0.84375 0.6875
vt 0.78125 0.6875
vt 0.78125 0.84375
vt 0.84375 0.84375
vt 0.84375 0.6875
vn 1 0 0
vn -1 0 0
vn 0 1 0
vn 0 -1 0
vn 0 0 1
vn 0 0 -1
vn 0.7071067811865476 0.7071067811865476 0
vn -0.7071067811865476 0.7071067811865476 0
vn 0 1 0
vn 0 -1 0
vn 0 0.7071067811865476 0.7071067811865476
vn 0 0.7071067811865476 -0.7071067811865476
vn 1 0 0
vn -1 0 0
vn 0 1 0
vn 0 -1 0
vn 0 0 1
vn 0 0 -1
vn -0.5000000000000001 -0.8660254037844386 0
vn 0.5000000000000001 0.8660254037844386 0
vn -0.8660254037844386 0.5000000000000001 0
vn 0.8660254037844386 -0.5000000000000001 0
vn 0 0 1
vn 0 0 -1
vn -0.5 -0.8660254037844387 0
vn 0.5 0.8660254037844387 0
vn -0.8660254037844388 0.49999999999999994 0
vn 0.8660254037844388 -0.49999999999999994 0
vn 0 0 1
vn 0 0 -1
vn -0.5000000000000001 -0.8660254037844388 0
vn 0.5 0.8660254037844387 0
vn -0.8660254037844389 0.4999999999999998 0
vn 0.8660254037844387 -0.5000000000000001 0
vn 0 0 1
vn 0 0 -1
vn -1.4901160993260542e-8 -0.8660254037844402 -0.49999999999999734
vn 1.4901160993260537e-8 0.8660254037844406 0.49999999999999645
vn -1.6653345369377358e-16 0.4999999999999967 -0.8660254037844406
vn 5.551115123125788e-17 -0.4999999999999967 0.8660254037844406
vn -0.9999999999999999 1.2904784221032926e-8 7.450580900242351e-9
vn 1 -1.290478452435149e-8 -7.450580818968393e-9
vn -1.490116114709755e-8 -0.8660254037844403 -0.499999999999997
vn 1.4901161147097554e-8 0.8660254037844408 0.49999999999999645
vn -7.105427357601003e-17 0.4999999999999966 -0.8660254037844407
vn 0 -0.4999999999999967 0.8660254037844405
vn -0.9999999999999999 1.290478437341812e-8 7.450580902756975e-9
vn 0.9999999999999999 -1.2904784447432981e-8 -7.450580774559468e-9
vn -1.490116176244561e-8 -0.8660254037844404 -0.49999999999999717
vn 1.4901160224075464e-8 0.8660254037844407 0.49999999999999656
vn 2.77555756156289e-16 0.4999999999999962 -0.8660254037844407
vn -3.3306690738754676e-16 -0.49999999999999667 0.8660254037844407
vn -1 1.2904784139758967e-8 7.450580596923795e-9
vn 1 -1.2904784139758945e-8 -7.4505805969237835e-9
vn 0.5000000000000001 -0.8660254037844386 0
vn -0.5000000000000001 0.8660254037844386 0
vn 0.8660254037844386 0.5000000000000001 0
vn -0.8660254037844386 -0.5000000000000001 0
vn 0 0 1
vn 0 0 -1
vn 0.5000000000000001 -0.8660254037844386 0
vn -0.5000000000000001 0.8660254037844386 0
vn 0.8660254037844388 0.49999999999999994 0
vn -0.8660254037844388 -0.49999999999999994 0
vn 0 0 1
vn 0 0 -1
vn 0.5000000000000001 -0.8660254037844388 0
vn -0.5000000000000001 0.8660254037844388 0
vn 0.8660254037844389 0.4999999999999998 0
vn -0.8660254037844389 -0.4999999999999998 0
vn 0 0 1
vn 0 0 -1
vn -1.4901161027314206e-8 -0.8660254037844402 0.49999999999999734
vn 1.4901161027314203e-8 0.8660254037844406 -0.49999999999999645
vn -1.1580908334361618e-16 0.4999999999999967 0.8660254037844406
vn 5.631241048495532e-17 -0.49999999999999667 -0.8660254037844406
vn -0.9999999999999999 1.2904784221032924e-8 -7.45058090024235e-9
vn 0.9999999999999999 -1.2904784524351492e-8 7.450580818968395e-9
vn -1.4901161134635759e-8 -0.8660254037844403 0.49999999999999695
vn 1.4901161193847656e-8 0.8660254037844408 -0.49999999999999645
vn -2.699123849501505e-17 0.499999999999997 0.8660254037844406
vn 2.870679350951638e-16 -0.49999999999999667 -0.8660254037844406
vn -0.9999999999999999 1.2904784373418122e-8 -7.45058090275697e-9
vn 0.9999999999999999 -1.2904784447432981e-8 7.450580774559465e-9
vn -1.4901161904390393e-8 -0.8660254037844404 0.49999999999999717
vn 1.490116030566924e-8 0.8660254037844407 -0.49999999999999656
vn 3.282801198890014e-16 0.4999999999999962 0.8660254037844407
vn -3.282801256792657e-16 -0.49999999999999667 -0.8660254037844407
vn -1 1.2904784139758963e-8 -7.450580596923793e-9
vn 1 -1.2904784139758945e-8 7.4505805969237835e-9
usemtl m_9b6b2ba4-81ed-8240-93b9-751bc618b6e9
f 4/1/1 2/2/1 1/3/1 3/4/1
f 7/5/2 5/6/2 6/7/2 8/8/2
f 1/9/3 2/10/3 6/11/3 5/12/3
f 4/13/4 3/14/4 7/15/4 8/16/4
f 3/17/5 1/18/5 5/19/5 7/20/5
f 8/21/6 6/22/6 2/23/6 4/24/6
f 12/25/7 10/26/7 9/27/7 11/28/7
f 15/29/8 13/30/8 14/31/8 16/32/8
f 9/33/9 10/34/9 14/35/9 13/36/9
f 12/37/10 11/38/10 15/39/10 16/40/10
f 11/41/11 9/42/11 13/43/11 15/44/11
f 16/45/12 14/46/12 10/47/12 12/48/12
f 20/49/13 18/50/13 17/51/13 19/52/13
f 23/53/14 21/54/14 22/55/14 24/56/14
f 17/57/15 18/58/15 22/59/15 21/60/15
f 20/61/16 19/62/16 23/63/16 24/64/16
f 19/65/17 17/66/17 21/67/17 23/68/17
f 24/69/18 22/70/18 18/71/18 20/72/18
f 25/73/19 26/74/19 28/75/19 27/76/19
f 30/77/20 29/78/20 31/79/20 32/80/20
f 30/81/21 26/82/21 25/83/21 29/84/21
f 31/85/22 27/86/22 28/87/22 32/88/22
f 29/89/23 25/90/23 27/91/23 31/92/23
f 26/93/24 30/94/24 32/95/24 28/96/24
f 33/97/25 34/98/25 36/99/25 35/100/25
f 38/101/26 37/102/26 39/103/26 40/104/26
f 38/105/27 34/106/27 33/107/27 37/108/27
f 39/109/28 35/110/28 36/111/28 40/112/28
f 37/113/29 33/114/29 35/115/29 39/116/29
f 34/117/30 38/118/30 40/119/30 36/120/30
f 41/121/31 42/122/31 44/123/31 43/124/31
f 46/125/32 45/126/32 47/127/32 48/128/32
f 46/129/33 42/130/33 41/131/33 45/132/33
f 47/133/34 43/134/34 44/135/34 48/136/34
f 45/137/35 41/138/35 43/139/35 47/140/35
f 42/141/36 46/142/36 48/143/36 44/144/36
f 49/145/37 50/146/37 52/147/37 51/148/37
f 54/149/38 53/150/38 55/151/38 56/152/38
f 54/153/39 50/154/39 49/155/39 53/156/39
f 55/157/40 51/158/40 52/159/40 56/160/40
f 53/161/41 49/162/41 51/163/41 55/164/41
f 50/165/42 54/166/42 56/167/42 52/168/42
f 57/169/43 58/170/43 60/171/43 59/172/43
f 62/173/44 61/174/44 63/175/44 64/176/44
f 62/177/45 58/178/45 57/179/45 61/180/45
f 63/181/46 59/182/46 60/183/46 64/184/46
f 61/185/47 57/186/47 59/187/47 63/188/47
f 58/189/48 62/190/48 64/191/48 60/192/48
f 65/193/49 66/194/49 68/195/49 67/196/49
f 70/197/50 69/198/50 71/199/50 72/200/50
f 70/201/51 66/202/51 65/203/51 69/204/51
f 71/205/52 67/206/52 68/207/52 72/208/52
f 69/209/53 65/210/53 67/211/53 71/212/53
f 66/213/54 70/214/54 72/215/54 68/216/54
f 76/217/55 74/218/55 73/219/55 75/220/55
f 79/221/56 77/222/56 78/223/56 80/224/56
f 73/225/57 74/226/57 78/227/57 77/228/57
f 76/229/58 75/230/58 79/231/58 80/232/58
f 75/233/59 73/234/59 77/235/59 79/236/59
f 80/237/60 78/238/60 74/239/60 76/240/60
f 84/241/61 82/242/61 81/243/61 83/244/61
f 87/245/62 85/246/62 86/247/62 88/248/62
f 81/249/63 82/250/63 86/251/63 85/252/63
f 84/253/64 83/254/64 87/255/64 88/256/64
f 83/257/65 81/258/65 85/259/65 87/260/65
f 88/261/66 86/262/66 82/263/66 84/264/66
f 92/265/67 90/266/67 89/267/67 91/268/67
f 95/269/68 93/270/68 94/271/68 96/272/68
f 89/273/69 90/274/69 94/275/69 93/276/69
f 92/277/70 91/278/70 95/279/70 96/280/70
f 91/281/71 89/282/71 93/283/71 95/284/71
f 96/285/72 94/286/72 90/287/72 92/288/72
f 100/289/73 98/290/73 97/291/73 99/292/73
f 103/293/74 101/294/74 102/295/74 104/296/74
f 97/297/75 98/298/75 102/299/75 101/300/75
f 100/301/76 99/302/76 103/303/76 104/304/76
f 99/305/77 97/306/77 101/307/77 103/308/77
f 104/309/78 102/310/78 98/311/78 100/312/78
f 108/313/79 106/314/79 105/315/79 107/316/79
f 111/317/80 109/318/80 110/319/80 112/320/80
f 105/321/81 106/322/81 110/323/81 109/324/81
f 108/325/82 107/326/82 111/327/82 112/328/82
f 107/329/83 105/330/83 109/331/83 111/332/83
f 112/333/84 110/334/84 106/335/84 108/336/84
f 116/337/85 114/338/85 113/339/85 115/340/85
f 119/341/86 117/342/86 118/343/86 120/344/86
f 113/345/87 114/346/87 118/347/87 117/348/87
f 116/349/88 115/350/88 119/351/88 120/352/88
f 115/353/89 113/354/89 117/355/89 119/356/89
f 120/357/90 118/358/90 114/359/90 116/360/90