# Made in Blockbench 4.10.4
mtllib sprinkler_high_inv.mtl

o cube
v 0.875 1.0625 0.875
v 0.875 1.0625 0.125
v 0.9375 1 0.9375
v 0.9375 1 0.0625
v 0.125 1.0625 0.875
v 0.125 1.0625 0.125
v 0.0625 1 0.9375
v 0.0625 1 0.0625
v 1 1 1
v 1 1 0
v 1 0 1
v 1 0 0
v 0 1 1
v 0 1 0
v 0 0 1
v 0 0 0
v 1.166265877365274 1.3917468245269453 0.625
v 1.166265877365274 1.3917468245269453 0.375
v 0.9497595264191645 1.2667468245269453 0.625
v 0.9497595264191645 1.2667468245269453 0.375
v 1.041265877365274 1.608253175473055 0.625
v 1.041265877365274 1.608253175473055 0.375
v 0.8247595264191645 1.483253175473055 0.625
v 0.8247595264191645 1.483253175473055 0.375
v 1.2360174651018014 1.3959335306586815 0.65625
v 1.2360174651018014 1.3959335306586815 0.34375
v 0.911257938682637 1.2084335306586815 0.65625
v 0.911257938682637 1.2084335306586815 0.34375
v 1.0797674651018014 1.6665664693413187 0.65625
v 1.0797674651018014 1.6665664693413187 0.34375
v 0.755007938682637 1.4790664693413187 0.65625
v 0.755007938682637 1.4790664693413187 0.34375
v 0.9185095264191645 1.3208734122634727 0.5625
v 0.9185095264191645 1.3208734122634727 0.4375
v 0.4854968245269452 1.0708734122634727 0.5625
v 0.4854968245269452 1.0708734122634727 0.4375
v 0.8560095264191645 1.4291265877365276 0.5625
v 0.8560095264191645 1.4291265877365276 0.4375
v 0.4229968245269452 1.1791265877365273 0.5625
v 0.4229968245269452 1.1791265877365273 0.4375
v 0.6395031754730548 1.3041265877365273 0.4375
v 0.6395031754730548 1.3041265877365273 0.5625
v 0.7020031754730548 1.1958734122634727 0.5625
v 0.7020031754730548 1.1958734122634727 0.4375
v 0.6875 1.25 0.6875
v 0.6875 1.25 0.3125
v 0.6875 0.875 0.6875
v 0.6875 0.875 0.3125
v 0.3125 1.25 0.6875
v 0.3125 1.25 0.3125
v 0.3125 0.875 0.6875
v 0.3125 0.875 0.3125
v 0.6875 1.25 0.5
v 0.6875 0.875 0.5
v 0.3125 0.875 0.5
v 0.3125 1.25 0.5
v 0.65625 1.458364596472863 0.7363102701293388
v 0.3437500000000001 1.4583645936380967 0.7363102664349994
v 0.65625 1.2104416776318532 0.9265482166945652
v 0.3437500000000001 1.210441674797087 0.9265482130002258
v 0.6562499990686774 1.4964121857859083 0.7858948538975408
v 0.34374999906867754 1.4964121829511419 0.7858948502032014
v 0.6562499990686774 1.2484892669448984 0.9761328004627672
v 0.3437499990686775 1.248489264110132 0.9761327967684278
v 0.7499999999999982 1.3749999999999978 0.375
v 0.7499999999999982 1.3749999999999978 0.125
v 0.7499999999999989 1.1249999999999978 0.375
v 0.7499999999999989 1.1249999999999978 0.125
v 0.24999999999999822 1.3749999999999967 0.375
v 0.24999999999999822 1.3749999999999967 0.125
v 0.2499999999999989 1.1249999999999967 0.375
v 0.2499999999999989 1.1249999999999967 0.125
v 0.7499999999999982 1.3749999999999978 0.875
v 0.7499999999999982 1.3749999999999978 0.625
v 0.7499999999999989 1.1249999999999978 0.875
v 0.7499999999999989 1.1249999999999978 0.625
v 0.24999999999999822 1.3749999999999967 0.875
v 0.24999999999999822 1.3749999999999967 0.625
v 0.2499999999999989 1.1249999999999967 0.875
v 0.2499999999999989 1.1249999999999967 0.625
v 0.65625 1.458364596472863 0.2636897298706612
v 0.3437500000000001 1.4583645936380967 0.2636897335650006
v 0.65625 1.2104416776318532 0.07345178330543478
v 0.3437500000000001 1.210441674797087 0.07345178699977417
v 0.6562499990686774 1.4964121857859083 0.21410514610245923
v 0.34374999906867754 1.4964121829511419 0.21410514979679862
v 0.6562499990686774 1.2484892669448984 0.02386719953723282
v 0.3437499990686775 1.248489264110132 0.02386720323157221
vt 0.53125 0.46875
vt 0.57544375 0.4375
vt 0.57544375 0.0625
vt 0.53125 0.03125
vt 0.96875 0.03393125000000008
vt 0.9375 0.07812500000000011
vt 0.5625 0.07812500000000011
vt 0.53125 0.03393125000000008
vt 0.9375 0.0625
vt 0.9375 0.4375
vt 0.5625 0.4375
vt 0.5625 0.0625
vt 0.375 0.625
vt 0.375 1
vt 0 1
vt 0 0.625
vt 0.96875 0.46875
vt 0.9375 0.42455624999999997
vt 0.5625 0.42455624999999997
vt 0.53125 0.46875
vt 0.9691937499999999 0.46875
vt 0.9249999999999998 0.4375
vt 0.9249999999999998 0.0625
vt 0.9691937499999999 0.03125
vt 0.5 0.5
vt 0.5 1
vt 0 1
vt 0 0.5
vt 0.5 0.5
vt 0.5 1
vt 0 1
vt 0 0.5
vt 1 0
vt 1 0.5
vt 0.5 0.5
vt 0.5 0
vt 0.5 0
vt 0.5 0.5
vt 0 0.5
vt 0 0
vt 0.5 0.5
vt 0.5 1
vt 0 1
vt 0 0.5
vt 0.5 0.5
vt 0.5 1
vt 0 1
vt 0 0.5
vt 0.84375 0.71875
vt 0.84375 0.84375
vt 0.71875 0.84375
vt 0.71875 0.71875
vt 0.84375 0.71875
vt 0.84375 0.84375
vt 0.71875 0.84375
vt 0.71875 0.71875
vt 0.8125 0.1875
vt 0.8125 0.3125
vt 0.6875 0.3125
vt 0.6875 0.1875
vt 0.8125 0.1875
vt 0.8125 0.3125
vt 0.6875 0.3125
vt 0.6875 0.1875
vt 0.84375 0.71875
vt 0.84375 0.84375
vt 0.71875 0.84375
vt 0.71875 0.71875
vt 0.84375 0.71875
vt 0.84375 0.84375
vt 0.71875 0.84375
vt 0.71875 0.71875
vt 1 0.8125
vt 1 1
vt 0.84375 1
vt 0.84375 0.8125
vt 1 0.8125
vt 1 1
vt 0.84375 1
vt 0.84375 0.8125
vt 0.6875 0.84375
vt 0.6875 1
vt 0.53125 1
vt 0.53125 0.84375
vt 0.84375 0.84375
vt 0.84375 1
vt 0.6875 1
vt 0.6875 0.84375
vt 1 0.8125
vt 1 1
vt 0.84375 1
vt 0.84375 0.8125
vt 1 0.8125
vt 1 1
vt 0.84375 1
vt 0.84375 0.8125
vt 0.84375 0.71875
vt 0.84375 0.84375
vt 0.78125 0.84375
vt 0.78125 0.71875
vt 0.84375 0.71875
vt 0.84375 0.84375
vt 0.78125 0.84375
vt 0.78125 0.71875
vt 0.96875 0.6875
vt 0.96875 0.75
vt 0.90625 0.75
vt 0.90625 0.6875
vt 0.96875 0.6875
vt 0.96875 0.75
vt 0.90625 0.75
vt 0.90625 0.6875
vt 0.84375 0.71875
vt 0.84375 0.84375
vt 0.78125 0.84375
vt 0.78125 0.71875
vt 0.84375 0.71875
vt 0.84375 0.84375
vt 0.78125 0.84375
vt 0.78125 0.71875
vt 0.78125 0.84375
vt 0.78125 0.71875
vt 0.84375 0.71875
vt 0.84375 0.84375
vt 0.78125 0.84375
vt 0.78125 0.71875
vt 0.84375 0.71875
vt 0.84375 0.84375
vt 0.78125 0.84375
vt 0.78125 0.71875
vt 0.84375 0.71875
vt 0.84375 0.84375
vt 0.78125 0.84375
vt 0.78125 0.71875
vt 0.84375 0.71875
vt 0.84375 0.84375
vt 0.5 0.84375
vt 0.5 0.75
vt 0.6875 0.75
vt 0.6875 0.84375
vt 0.6875 0.65625
vt 0.6875 0.75
vt 0.5 0.75
vt 0.5 0.65625
vt 0.6875 0.65625
vt 0.6875 0.75
vt 0.5 0.75
vt 0.5 0.65625
vt 0.5 0.84375
vt 0.5 0.75
vt 0.6875 0.75
vt 0.6875 0.84375
vt 0.1875 0.8125
vt 0.1875 0.625
vt 0 0.625
vt 0 0.8125
vt 0.5 0.8125
vt 0.5 0.625
vt 0.3125 0.625
vt 0.3125 0.8125
vt 0.5 0.65625
vt 0.5 0.75
vt 0.6875 0.75
vt 0.6875 0.65625
vt 0.6875 0.65625
vt 0.6875 0.75
vt 0.5 0.75
vt 0.5 0.65625
vt 0.5 0.84375
vt 0.5 0.75
vt 0.6875 0.75
vt 0.6875 0.84375
vt 0.5 0.84375
vt 0.5 0.75
vt 0.6875 0.75
vt 0.6875 0.84375
vt 0.65625 0.5
vt 0.65625 0.65625
vt 0.5 0.65625
vt 0.5 0.5
vt 0.65625 0.5
vt 0.65625 0.65625
vt 0.5 0.65625
vt 0.5 0.5
vt 0.53125 0.5
vt 0.53125 0.65625
vt 0.5 0.65625
vt 0.5 0.5
vt 0.53125 0.5
vt 0.53125 0.65625
vt 0.5 0.65625
vt 0.5 0.5
vt 0.53125 0.5
vt 0.53125 0.65625
vt 0.5 0.65625
vt 0.5 0.5
vt 0.53125 0.5
vt 0.53125 0.65625
vt 0.5 0.65625
vt 0.5 0.5
vt 0.5 0.625
vt 0.5 0.75
vt 0.375 0.75
vt 0.375 0.625
vt 0.5 0.625
vt 0.5 0.75
vt 0.375 0.75
vt 0.375 0.625
vt 0.25 0.75
vt 0.25 0.625
vt 0 0.625
vt 0 0.75
vt 0.25 0.75
vt 0.25 0.625
vt 0 0.625
vt 0 0.75
vt 0.25 0.625
vt 0.25 0.75
vt 0 0.75
vt 0 0.625
vt 0.25 0.75
vt 0.25 0.625
vt 0 0.625
vt 0 0.75
vt 0.5 0.625
vt 0.5 0.75
vt 0.375 0.75
vt 0.375 0.625
vt 0.5 0.625
vt 0.5 0.75
vt 0.375 0.75
vt 0.375 0.625
vt 0.25 0.75
vt 0.25 0.625
vt 0 0.625
vt 0 0.75
vt 0.25 0.75
vt 0.25 0.625
vt 0 0.625
vt 0 0.75
vt 0.25 0.625
vt 0.25 0.75
vt 0 0.75
vt 0 0.625
vt 0.25 0.75
vt 0.25 0.625
vt 0 0.625
vt 0 0.75
vt 0.5 0.65625
vt 0.65625 0.65625
vt 0.65625 0.5
vt 0.5 0.5
vt 0.5 0.65625
vt 0.65625 0.65625
vt 0.65625 0.5
vt 0.5 0.5
vt 0.5 0.65625
vt 0.53125 0.65625
vt 0.53125 0.5
vt 0.5 0.5
vt 0.5 0.65625
vt 0.53125 0.65625
vt 0.53125 0.5
vt 0.5 0.5
vt 0.5 0.65625
vt 0.53125 0.65625
vt 0.53125 0.5
vt 0.5 0.5
vt 0.5 0.65625
vt 0.53125 0.65625
vt 0.53125 0.5
vt 0.5 0.5
vn 0.7071067811865476 0.7071067811865476 0
vn -0.7071067811865476 0.7071067811865476 0
vn 0 1 0
vn 0 -1 0
vn 0 0.7071067811865476 0.7071067811865476
vn 0 0.7071067811865476 -0.7071067811865476
vn 1 0 0
vn -1 0 0
vn 0 1 0
vn 0 -1 0
vn 0 0 1
vn 0 0 -1
vn 0.5000000000000001 -0.8660254037844386 0
vn -0.5000000000000001 0.8660254037844386 0
vn 0.8660254037844386 0.5000000000000001 0
vn -0.8660254037844386 -0.5000000000000001 0
vn 0 0 1
vn 0 0 -1
vn 0.5000000000000001 -0.8660254037844386 0
vn -0.5000000000000001 0.8660254037844386 0
vn 0.8660254037844388 0.49999999999999994 0
vn -0.8660254037844388 -0.49999999999999994 0
vn 0 0 1
vn 0 0 -1
vn 0.5000000000000001 -0.8660254037844386 0
vn -0.5000000000000001 0.8660254037844386 0
vn 0.8660254037844389 0.4999999999999998 0
vn -0.8660254037844384 -0.5000000000000006 0
vn 0 0 1
vn 0 0 -1
vn -0.5000000000000007 0.8660254037844385 0
vn 0 0 1
vn 0.5 -0.8660254037844388 0
vn 0 0 -1
vn 1 0 0
vn -1 0 0
vn 0 1 0
vn 0 -1 0
vn 0 0 1
vn 0 0 -1
vn 1 0 0
vn 0 -1 0
vn -1 0 0
vn 0 1 0
vn 1.49011614070105e-8 -0.6087614290087251 -0.7933533402912318
vn -1.4901161478064757e-8 0.6087614290087247 0.793353340291232
vn -2.663904987178284e-16 0.7933533402912326 -0.6087614290087241
vn -2.9732095366660246e-16 -0.7933533402912326 0.6087614290087241
vn 1 9.071252182256068e-9 1.182188600735714e-8
vn -1 -9.071252041328206e-9 -1.1821886115494896e-8
vn 1 2.6645352591003757e-15 0
vn -1 -2.6645352591003757e-15 0
vn -2.220446049250313e-15 1 0
vn 2.220446049250313e-15 -1 0
vn 0 0 1
vn 0 0 -1
vn 1 2.6645352591003757e-15 0
vn -1 -2.6645352591003757e-15 0
vn -2.220446049250313e-15 1 0
vn 2.220446049250313e-15 -1 0
vn 0 0 1
vn 0 0 -1
vn 1.4901161449320575e-8 -0.6087614290087251 0.7933533402912318
vn -1.4901161449320572e-8 0.6087614290087247 -0.793353340291232
vn -2.66453525910038e-16 0.7933533402912326 0.6087614290087241
vn -2.9976021664879273e-16 -0.7933533402912326 -0.608761429008724
vn 1 9.071252182256068e-9 -1.182188600735714e-8
vn -1 -9.071252041328203e-9 1.1821886115494891e-8
usemtl m_877ad5f3-804d-488f-09c9-a7c69cd6a4b2
f 4/1/1 2/2/1 1/3/1 3/4/1
f 7/5/2 5/6/2 6/7/2 8/8/2
f 1/9/3 2/10/3 6/11/3 5/12/3
f 4/13/4 3/14/4 7/15/4 8/16/4
f 3/17/5 1/18/5 5/19/5 7/20/5
f 8/21/6 6/22/6 2/23/6 4/24/6
f 12/25/7 10/26/7 9/27/7 11/28/7
f 15/29/8 13/30/8 14/31/8 16/32/8
f 9/33/9 10/34/9 14/35/9 13/36/9
f 12/37/10 11/38/10 15/39/10 16/40/10
f 11/41/11 9/42/11 13/43/11 15/44/11
f 16/45/12 14/46/12 10/47/12 12/48/12
f 20/49/13 18/50/13 17/51/13 19/52/13
f 23/53/14 21/54/14 22/55/14 24/56/14
f 17/57/15 18/58/15 22/59/15 21/60/15
f 20/61/16 19/62/16 23/63/16 24/64/16
f 19/65/17 17/66/17 21/67/17 23/68/17
f 24/69/18 22/70/18 18/71/18 20/72/18
f 28/73/19 26/74/19 25/75/19 27/76/19
f 31/77/20 29/78/20 30/79/20 32/80/20
f 25/81/21 26/82/21 30/83/21 29/84/21
f 28/85/22 27/86/22 31/87/22 32/88/22
f 27/89/23 25/90/23 29/91/23 31/92/23
f 32/93/24 30/94/24 26/95/24 28/96/24
f 36/97/25 44/98/25 43/99/25 35/100/25
f 39/101/26 42/102/26 41/103/26 40/104/26
f 33/105/27 34/106/27 38/107/27 37/108/27
f 36/109/28 35/110/28 39/111/28 40/112/28
f 35/113/29 43/114/29 42/115/29 39/116/29
f 40/117/30 41/118/30 44/119/30 36/120/30
f 38/121/31 41/122/31 42/123/31 37/124/31
f 37/125/32 42/126/32 43/127/32 33/128/32
f 33/129/33 43/130/33 44/131/33 34/132/33
f 34/133/34 44/134/34 41/135/34 38/136/34
f 47/137/35 54/138/35 53/139/35 45/140/35
f 49/141/36 56/142/36 55/143/36 51/144/36
f 45/145/37 53/146/37 56/147/37 49/148/37
f 51/149/38 55/150/38 54/151/38 47/152/38
f 47/153/39 45/154/39 49/155/39 51/156/39
f 52/157/40 50/158/40 46/159/40 48/160/40
f 46/161/41 53/162/41 54/163/41 48/164/41
f 48/165/42 54/166/42 55/167/42 52/168/42
f 52/169/43 55/170/43 56/171/43 50/172/43
f 50/173/44 56/174/44 53/175/44 46/176/44
f 60/177/45 58/178/45 57/179/45 59/180/45
f 63/181/46 61/182/46 62/183/46 64/184/46
f 57/185/47 58/186/47 62/187/47 61/188/47
f 60/189/48 59/190/48 63/191/48 64/192/48
f 59/193/49 57/194/49 61/195/49 63/196/49
f 64/197/50 62/198/50 58/199/50 60/200/50
f 68/201/51 66/202/51 65/203/51 67/204/51
f 71/205/52 69/206/52 70/207/52 72/208/52
f 65/209/53 66/210/53 70/211/53 69/212/53
f 68/213/54 67/214/54 71/215/54 72/216/54
f 67/217/55 65/218/55 69/219/55 71/220/55
f 72/221/56 70/222/56 66/223/56 68/224/56
f 76/225/57 74/226/57 73/227/57 75/228/57
f 79/229/58 77/230/58 78/231/58 80/232/58
f 73/233/59 74/234/59 78/235/59 77/236/59
f 76/237/60 75/238/60 79/239/60 80/240/60
f 75/241/61 73/242/61 77/243/61 79/244/61
f 80/245/62 78/246/62 74/247/62 76/248/62
f 81/249/63 82/250/63 84/251/63 83/252/63
f 86/253/64 85/254/64 87/255/64 88/256/64
f 86/257/65 82/258/65 81/259/65 85/260/65
f 87/261/66 83/262/66 84/263/66 88/264/66
f 85/265/67 81/266/67 83/267/67 87/268/67
f 82/269/68 86/270/68 88/271/68 84/272/68